<svg width="63" height="63" viewBox="0 0 63 63" fill="none" xmlns="http://www.w3.org/2000/svg">
<path d="M53.7874 9.12423C41.4995 -3.04141 21.5042 -3.04141 9.21631 9.12423C5.48997 12.8135 2.89211 17.2049 1.42666 21.8756C1.33262 22.1821 1.71661 22.411 1.94388 22.186L9.72961 14.4777C10.4271 13.5855 11.1911 12.7243 12.0179 11.9018C12.8564 11.0717 13.7381 10.3035 14.651 9.60527C25.4813 1.30734 41.1782 2.10261 51.0759 11.9949C61.769 22.6787 61.7259 39.8448 50.9819 50.482C40.2378 61.1191 22.7581 61.1152 12.0179 50.482C10.0901 48.5733 8.51101 46.4552 7.27673 44.1974C7.17877 44.0151 6.93192 43.9802 6.78302 44.1276L4.33014 46.5561C4.23218 46.653 4.20867 46.8082 4.2792 46.9285C5.60752 49.194 7.25714 51.3238 9.21239 53.2596C21.4964 65.4213 41.4956 65.4252 53.7835 53.2596C66.0714 41.0939 66.0714 21.286 53.7874 9.12423Z" fill="black" fill-opacity="0.2"/>
<path d="M45.4297 17.3954C53.1136 25.0028 53.1136 37.3702 45.4297 44.9776C37.7458 52.585 25.2463 52.585 17.5664 44.9814C15.6072 43.0418 14.1457 40.7917 13.1896 38.3865C13.1073 38.1809 12.8409 38.1227 12.6802 38.2818L10.1372 40.7995C10.0432 40.8926 10.0197 41.0284 10.0745 41.1486C11.2069 43.5422 12.7704 45.7845 14.7648 47.7591C23.9925 56.8949 39.0036 56.891 48.2313 47.7552C57.4864 38.5922 57.4864 23.7847 48.2313 14.6217C39.0036 5.48579 23.9886 5.48192 14.7648 14.6178L4.80046 24.483L0.149396 29.0877C0.0945398 29.1421 0.0631918 29.2119 0.0592734 29.2856C-0.0347666 30.8373 -0.0190919 32.3968 0.121968 33.9486C0.145478 34.2085 0.466781 34.321 0.650943 34.1387L3.96194 30.8606L8.31129 26.5545L17.5703 17.3876C25.2463 9.78799 37.7498 9.78799 45.4297 17.3954Z" fill="black" fill-opacity="0.5"/>
<path d="M40.0852 39.7128C35.4734 44.2671 27.7229 44.3292 23.0405 39.8408C20.8776 37.7692 19.6629 35.0925 19.4003 32.342C19.3768 32.0821 19.0594 31.9657 18.8714 32.1519L16.0031 34.9916C15.9248 35.0692 15.8934 35.1817 15.9209 35.2864C16.6105 37.8856 17.9741 40.3412 20.0038 42.3818C26.2653 48.6818 36.5862 48.7206 42.9025 42.471C49.1914 36.2446 49.1915 26.1195 42.9064 19.8932C37.4952 14.5358 29.1648 13.7871 22.9425 17.6509C22.5585 17.8837 22.1902 18.1358 21.8258 18.4035C21.814 18.4151 21.8023 18.4229 21.7905 18.4345L21.336 18.8845L18.6284 21.5652L12.0652 28.0631L7.87651 32.2101L4.35001 35.7015L1.13306 38.8865C1.05469 38.9641 1.02334 39.0766 1.05077 39.1813C1.3995 40.4925 1.83444 41.7882 2.36341 43.0568C2.383 43.1111 2.45745 43.1266 2.49663 43.0839L5.47849 40.1317L8.59748 37.0438L11.9751 33.6998L15.4115 30.2976L20.9794 24.785L21.6534 24.1178L24.3766 21.4216C29.1296 18.0117 35.8299 18.4268 40.1087 22.663C44.8499 27.3687 44.8421 35.0188 40.0852 39.7128Z" fill="black"/>
</svg>
