<svg width="39" height="39" viewBox="0 0 39 39" fill="none" xmlns="http://www.w3.org/2000/svg">
<path d="M33.2971 5.64836C25.6902 -1.88279 13.3122 -1.88279 5.70534 5.64836C3.39855 7.93219 1.79034 10.6507 0.883151 13.5421C0.824935 13.7318 1.06265 13.8735 1.20334 13.7342L6.0231 8.96244C6.45486 8.41009 6.92786 7.87696 7.43967 7.36784C7.95876 6.85391 8.50453 6.37841 9.06971 5.94614C15.7742 0.809309 25.4913 1.30162 31.6185 7.42547C38.2381 14.0392 38.2114 24.6659 31.5603 31.2509C24.9092 37.8358 14.0884 37.8334 7.43967 31.2509C6.24626 30.0693 5.26872 28.7581 4.50464 27.3604C4.444 27.2475 4.29118 27.2259 4.19901 27.3172L2.68055 28.8205C2.61991 28.8806 2.60536 28.9766 2.64902 29.0511C3.47132 30.4536 4.49251 31.772 5.70291 32.9703C13.3073 40.4991 25.6878 40.5015 33.2946 32.9703C40.9015 25.4392 40.9015 13.1771 33.2971 5.64836Z" fill="url(#paint0_linear_1117_3923)" fill-opacity="0.2"/>
<path d="M28.1233 10.7685C32.88 15.4779 32.88 23.1339 28.1233 27.8433C23.3666 32.5527 15.6288 32.5527 10.8745 27.8457C9.66166 26.6449 8.7569 25.2521 8.16504 23.7631C8.1141 23.6358 7.94916 23.5998 7.84971 23.6983L6.27546 25.2569C6.21724 25.3145 6.20269 25.3986 6.23665 25.473C6.93766 26.9547 7.90549 28.3428 9.14015 29.5652C14.8525 35.2207 24.1452 35.2183 29.8576 29.5628C35.587 23.8904 35.587 14.7238 29.8576 9.05146C24.1452 3.3959 14.8501 3.3935 9.14015 9.04906L2.97173 15.1561L0.092484 18.0067C0.0585249 18.0403 0.0391189 18.0835 0.0366932 18.1292C-0.0215223 19.0898 -0.0118188 20.0552 0.0755045 21.0158C0.0900584 21.1767 0.288961 21.2463 0.402966 21.1335L2.45264 19.1042L5.14511 16.4385L10.8769 10.7637C15.6288 6.05918 23.369 6.05918 28.1233 10.7685Z" fill="url(#paint1_linear_1117_3923)" fill-opacity="0.5"/>
<path d="M24.8148 24.5836C21.9598 27.403 17.1619 27.4414 14.2632 24.6629C12.9243 23.3805 12.1723 21.7234 12.0098 20.0208C11.9953 19.8599 11.7988 19.7878 11.6824 19.9031L9.90678 21.661C9.85826 21.709 9.83886 21.7787 9.85584 21.8435C10.2828 23.4525 11.1269 24.9727 12.3834 26.2359C16.2595 30.1359 22.6487 30.16 26.5588 26.2911C30.452 22.4367 30.452 16.1688 26.5613 12.3143C23.2115 8.99784 18.0545 8.53435 14.2026 10.9263C13.9649 11.0703 13.7369 11.2264 13.5113 11.3921C13.504 11.3994 13.4967 11.4042 13.4895 11.4114L13.2081 11.6899L11.532 13.3494L7.469 17.3719L4.87599 19.9391L2.6929 22.1005L0.701447 24.0721C0.652934 24.1202 0.633529 24.1898 0.650509 24.2546C0.866392 25.0664 1.13564 25.8685 1.4631 26.6538C1.47523 26.6874 1.52131 26.697 1.54557 26.6706L3.39149 24.843L5.3223 22.9314L7.41321 20.8613L9.54051 18.7552L12.9873 15.3426L13.4046 14.9296L15.0904 13.2605C18.0327 11.1496 22.1806 11.4066 24.8294 14.029C27.7644 16.942 27.7595 21.6778 24.8148 24.5836Z" fill="url(#paint2_linear_1117_3923)"/>
<defs>
<linearGradient id="paint0_linear_1117_3923" x1="-1.00003" y1="46.5" x2="46.5" y2="-5" gradientUnits="userSpaceOnUse">
<stop stop-color="#4EA2F0"/>
<stop offset="0.505208" stop-color="#D61616"/>
<stop offset="1" stop-color="#6E22CE"/>
</linearGradient>
<linearGradient id="paint1_linear_1117_3923" x1="8" y1="19.0002" x2="37.5" y2="34.0002" gradientUnits="userSpaceOnUse">
<stop stop-color="#DE1515"/>
<stop offset="0.5" stop-color="#4E6CD8"/>
<stop offset="1" stop-color="#B143E4"/>
</linearGradient>
<linearGradient id="paint2_linear_1117_3923" x1="8.00003" y1="18.9998" x2="33.5" y2="26.4998" gradientUnits="userSpaceOnUse">
<stop offset="0.106027" stop-color="#6AA1F3"/>
<stop offset="0.463542" stop-color="#8736EF" stop-opacity="0.536458"/>
<stop offset="1" stop-color="#C01E1E" stop-opacity="0.83"/>
</linearGradient>
</defs>
</svg>
